<?xml version="1.0" encoding="UTF-8"?>
<!DOCTYPE svg PUBLIC "-//W3C//DTD SVG 1.1//EN" "http://www.w3.org/Graphics/SVG/1.1/DTD/svg11.dtd">
<!-- Creator: CorelDRAW 2020 (64 Bit) -->
<svg xmlns="http://www.w3.org/2000/svg" xml:space="preserve" width="8.1278mm" height="8.1278mm" version="1.1" style="shape-rendering:geometricPrecision; text-rendering:geometricPrecision; image-rendering:optimizeQuality; fill-rule:evenodd; clip-rule:evenodd"
viewBox="0 0 812.78 812.78"
 xmlns:xlink="http://www.w3.org/1999/xlink"
 xmlns:xodm="http://www.corel.com/coreldraw/odm/2003">
 <defs>
  <style type="text/css">
   <![CDATA[
    .fil1 {fill:#A2B8DF}
    .fil0 {fill:#F6CAC9}
   ]]>
  </style>
 </defs>
 <g id="Camada_x0020_1">
  <metadata id="CorelCorpID_0Corel-Layer"/>
  <g id="_1892105933760">
   <path class="fil0" d="M142.55 87.66c102.29,-33.52 177.79,-19.66 233.62,35.67 60.73,60.17 175.48,207.45 225.66,287.07l-67.09 132.88c-138.71,274.74 -102.41,-487.93 -392.19,-455.62z"/>
   <path class="fil0" d="M141.71 90.01c78.93,-32.25 141.63,-15.59 188.84,21.97 58.42,46.47 216.62,293.1 249.55,357.01l-53.61 112.12c0,0 -130.62,-293.27 -186.41,-409.43 -37.33,-77.74 -107.42,-91.81 -198.37,-81.67z"/>
   <path class="fil1" d="M134.94 87.76c48.27,-15.81 89.65,-12.72 122.22,-0.16 61.37,23.66 95.85,87.48 134.13,161.12l159.8 271.02 -52.03 82.94c0,0 -121.59,-295.53 -177.38,-411.7 -37.33,-77.74 -95.79,-113.36 -186.74,-103.22z"/>
   <path class="fil1" d="M499.06 598.17c16.11,-37.38 29.48,-67.98 40.11,-91.83 10.64,-23.85 19.34,-43.82 26.11,-59.93 6.76,-16.11 12.4,-29.65 16.91,-40.6 4.52,-10.96 9.02,-21.76 13.54,-32.39 4.51,-10.63 9.34,-22.4 14.49,-35.28 5.16,-12.9 12.09,-29.65 20.79,-50.27l4.28 -10.15 44.79 0 -199.39 465.46 -17.4 0 -224.27 -534.57c-7.74,-18.05 -14.98,-33.35 -21.75,-45.93 -6.76,-12.56 -14.34,-22.71 -22.72,-30.45 -8.37,-7.72 -17.39,-13.53 -27.06,-17.4 -9.67,-3.86 -21.27,-6.43 -34.8,-7.73l0 -19.33c2.57,0 7.56,-0.32 14.98,-0.97 7.42,-0.64 13.37,-0.97 17.89,-0.97 11.6,0 24.81,1.3 39.62,3.88 14.83,2.57 29.81,8.05 44.96,16.42 15.14,8.38 29.97,20.63 44.46,36.74 14.5,16.11 27.55,38.02 39.16,65.74l165.3 389.56z"/>
  </g>
 </g>
</svg>
