<svg width="50" height="50" viewBox="0 0 50 50" fill="none" xmlns="http://www.w3.org/2000/svg">
<circle cx="25" cy="25" r="25" fill="#93A9D1"/>
<path d="M25 12.5007C28.3962 12.5007 28.82 12.5132 30.1525 12.5758C31.4837 12.6383 32.39 12.8471 33.1875 13.1572C34.0125 13.4748 34.7075 13.9049 35.4025 14.5989C36.0381 15.2239 36.5299 15.98 36.8438 16.8145C37.1525 17.611 37.3625 18.5188 37.425 19.8504C37.4838 21.1833 37.5 21.6072 37.5 25.0044C37.5 28.4017 37.4875 28.8256 37.425 30.1585C37.3625 31.4901 37.1525 32.3966 36.8438 33.1944C36.5308 34.0293 36.0389 34.7856 35.4025 35.41C34.7775 36.0456 34.0216 36.5376 33.1875 36.8517C32.3912 37.1605 31.4837 37.3706 30.1525 37.4331C28.82 37.4919 28.3962 37.5082 25 37.5082C21.6038 37.5082 21.18 37.4956 19.8475 37.4331C18.5162 37.3706 17.61 37.1605 16.8125 36.8517C15.9779 36.5385 15.2219 36.0464 14.5975 35.41C13.9618 34.7851 13.4699 34.029 13.1563 33.1944C12.8463 32.3979 12.6375 31.4901 12.575 30.1585C12.5162 28.8256 12.5 28.4017 12.5 25.0044C12.5 21.6072 12.5125 21.1833 12.575 19.8504C12.6375 18.5175 12.8463 17.6122 13.1563 16.8145C13.469 15.9795 13.961 15.2232 14.5975 14.5989C15.2221 13.9627 15.978 13.4707 16.8125 13.1572C17.61 12.8471 18.515 12.6383 19.8475 12.5758C21.18 12.517 21.6038 12.5007 25 12.5007ZM25 18.7526C23.3424 18.7526 21.7527 19.4113 20.5806 20.5837C19.4085 21.7562 18.75 23.3463 18.75 25.0044C18.75 26.6625 19.4085 28.2527 20.5806 29.4252C21.7527 30.5976 23.3424 31.2563 25 31.2563C26.6576 31.2563 28.2473 30.5976 29.4194 29.4252C30.5915 28.2527 31.25 26.6625 31.25 25.0044C31.25 23.3463 30.5915 21.7562 29.4194 20.5837C28.2473 19.4113 26.6576 18.7526 25 18.7526ZM33.125 18.44C33.125 18.0255 32.9604 17.6279 32.6674 17.3348C32.3743 17.0417 31.9769 16.877 31.5625 16.877C31.1481 16.877 30.7507 17.0417 30.4576 17.3348C30.1646 17.6279 30 18.0255 30 18.44C30 18.8545 30.1646 19.2521 30.4576 19.5452C30.7507 19.8383 31.1481 20.003 31.5625 20.003C31.9769 20.003 32.3743 19.8383 32.6674 19.5452C32.9604 19.2521 33.125 18.8545 33.125 18.44ZM25 21.2533C25.9946 21.2533 26.9484 21.6485 27.6517 22.352C28.3549 23.0555 28.75 24.0096 28.75 25.0044C28.75 25.9993 28.3549 26.9534 27.6517 27.6569C26.9484 28.3603 25.9946 28.7556 25 28.7556C24.0054 28.7556 23.0516 28.3603 22.3483 27.6569C21.6451 26.9534 21.25 25.9993 21.25 25.0044C21.25 24.0096 21.6451 23.0555 22.3483 22.352C23.0516 21.6485 24.0054 21.2533 25 21.2533Z" fill="white"/>
</svg>
