<svg width="300" height="111" viewBox="0 0 300 111" fill="none" xmlns="http://www.w3.org/2000/svg">
<path fill-rule="evenodd" clip-rule="evenodd" d="M24.9326 5.90926C32.3009 3.52624 37.7399 4.5117 41.7616 8.44392C46.1362 12.721 54.4024 23.1887 58.0174 28.848L53.1848 38.2927C43.1926 57.8196 45.8076 3.61276 24.9326 5.90926Z" fill="#F6CAC9"/>
<path fill-rule="evenodd" clip-rule="evenodd" d="M24.8726 6.0762C30.5582 3.78407 35.0746 4.96794 38.4758 7.63764C42.6839 10.9406 54.0801 28.47 56.4519 33.0123L52.5901 40.9816C52.5901 40.9816 43.1809 20.1366 39.1623 11.881C36.4729 6.35545 31.4237 5.35556 24.8726 6.0762Z" fill="#F6CAC9"/>
<path fill-rule="evenodd" clip-rule="evenodd" d="M24.3848 5.91584C27.8616 4.79272 30.8425 5.0121 33.189 5.90448C37.6093 7.58653 40.0932 12.1223 42.8512 17.3564L54.3621 36.6194L50.6141 42.5142C50.6141 42.5142 41.8551 21.5093 37.8365 13.2528C35.1471 7.72725 30.9359 5.19564 24.3848 5.91584Z" fill="#A2B8DF"/>
<path fill-rule="evenodd" clip-rule="evenodd" d="M212.078 18.833C214.539 18.833 216.616 19.0161 218.31 19.3823C220.005 19.749 221.293 20.3669 222.175 21.2374C222.593 21.65 222.93 22.108 223.185 22.6114C223.44 23.1157 223.615 23.7109 223.706 24.3979C223.8 25.0849 223.858 25.8982 223.881 26.8369C223.905 27.7764 223.916 28.8869 223.916 30.1695H222.523C222.338 27.2376 221.398 25.0735 219.703 23.6768C218.009 22.2797 215.931 21.5809 213.472 21.5809C211.707 21.5809 210.199 21.9476 208.944 22.68C207.692 23.4133 206.646 24.4093 205.811 25.6692C204.975 26.9286 204.36 28.4175 203.966 30.1354C203.571 31.8525 203.374 33.6962 203.374 35.6658C203.374 37.6354 203.571 39.4792 203.966 41.1971C204.36 42.9145 204.975 44.403 205.811 45.6629C206.646 46.9223 207.692 47.9187 208.944 48.6516C210.199 49.3845 211.707 49.7511 213.472 49.7511C215.931 49.7511 217.928 49.27 219.459 48.3081C220.992 47.3463 222.36 45.995 223.568 44.2544L224.961 45.2853C223.382 47.896 221.538 49.7511 219.425 50.8502C217.313 51.9493 214.863 52.4995 212.078 52.4995C209.478 52.4995 207.215 52.0524 205.288 51.1592C203.363 50.2664 201.772 49.0637 200.519 47.5525C199.265 46.0409 198.325 44.2658 197.698 42.2275C197.071 40.1893 196.758 38.0021 196.758 35.6658C196.758 33.33 197.071 31.1427 197.698 29.1045C198.325 27.0659 199.265 25.2912 200.519 23.7795C201.772 22.2679 203.363 21.0657 205.288 20.1724C207.215 19.2796 209.478 18.833 212.078 18.833Z" fill="#A2B8DF"/>
<path fill-rule="evenodd" clip-rule="evenodd" d="M193.597 36.7732H172.497C172.497 38.6515 172.706 40.3917 173.124 41.9951C173.542 43.598 174.158 44.9838 174.97 46.1519C175.782 47.3196 176.768 48.2247 177.929 48.8657C179.09 49.5068 180.412 49.8272 181.898 49.8272C184.173 49.8272 186.065 49.3465 187.574 48.3846C189.082 47.4227 190.44 46.0715 191.647 44.3309L193.04 45.3614C191.461 47.9725 189.639 49.8272 187.574 50.9267C185.507 52.0258 183.152 52.5755 180.506 52.5755C178.045 52.5755 175.91 52.1289 174.098 51.2361C172.288 50.3428 170.769 49.1402 169.538 47.629C168.308 46.1174 167.39 44.3422 166.787 42.304C166.184 40.2658 165.882 38.0786 165.882 35.7427C165.882 33.4065 166.195 31.2192 166.822 29.181C167.449 27.1428 168.366 25.3676 169.572 23.8565C170.779 22.3448 172.242 21.1422 173.959 20.2489C175.677 19.3561 177.627 18.9091 179.808 18.9091C184.544 18.9091 188.05 20.2148 190.324 22.8256C192.598 25.4363 193.736 29.1696 193.736 34.0248L193.597 36.7732ZM187.12 33.9488C187.12 29.9637 186.517 26.9064 185.31 24.7764C184.103 22.6464 182.269 21.5814 179.808 21.5814C178.741 21.5814 177.766 21.8908 176.884 22.5092C176.002 23.1271 175.237 23.9863 174.586 25.0853C173.937 26.1849 173.425 27.4906 173.054 29.0018C172.683 30.5135 172.497 32.1627 172.497 33.9488H187.12Z" fill="#A2B8DF"/>
<path fill-rule="evenodd" clip-rule="evenodd" d="M149.591 22.2683H144.716V19.5204H149.591V13.3367L153.073 9.21393H155.858V19.5204H164.214V22.2683H155.858V43.5674C155.858 47.6897 157.483 49.7511 160.733 49.7511C161.939 49.7511 162.937 49.6139 163.726 49.339C164.516 49.0641 165.259 48.7438 165.956 48.3771L166.651 49.7511C166.28 50.0264 165.85 50.324 165.363 50.6443C164.876 50.9651 164.283 51.2627 163.587 51.5376C162.891 51.8125 162.079 52.0415 161.151 52.225C160.221 52.4077 159.154 52.4995 157.947 52.4995C155.487 52.4995 153.479 51.7893 151.924 50.3699C150.369 48.9496 149.591 46.6824 149.591 43.5674V22.2683Z" fill="#A2B8DF"/>
<path fill-rule="evenodd" clip-rule="evenodd" d="M141.002 51.812H137.52L135.083 49.0637H134.734C133.853 49.9338 132.646 50.7243 131.114 51.434C129.582 52.1437 127.771 52.499 125.682 52.499C124.196 52.499 122.746 52.3277 121.33 51.9838C119.914 51.6403 118.649 50.9992 117.534 50.0601C116.42 49.1209 115.527 47.8497 114.854 46.2467C114.181 44.6437 113.843 42.6051 113.843 40.132V27.7642C113.843 25.7032 113.553 24.0426 112.973 22.7831C112.393 21.5237 111.058 20.8939 108.969 20.8939H108.273V19.52H113.843C115.051 19.52 116.06 19.6231 116.873 19.8289C117.685 20.0352 118.336 20.4473 118.823 21.0657C119.31 21.6836 119.647 22.5314 119.833 23.6082C120.018 24.6841 120.111 26.0699 120.111 27.7642V40.132C120.111 41.8727 120.332 43.327 120.772 44.4947C121.214 45.6624 121.794 46.6134 122.513 47.3458C123.233 48.0791 124.046 48.6057 124.95 48.9265C125.856 49.2468 126.796 49.4072 127.771 49.4072C129.163 49.4072 130.452 49.041 131.636 48.3081C132.82 47.5752 133.853 46.7278 134.734 45.7655V19.52H141.002V51.812Z" fill="#A2B8DF"/>
<path fill-rule="evenodd" clip-rule="evenodd" d="M107.786 43.5674C107.786 45.0327 107.473 46.3158 106.846 47.4149C106.219 48.5144 105.372 49.4417 104.304 50.1978C103.237 50.9533 101.948 51.5258 100.439 51.9152C98.9311 52.3046 97.3175 52.4995 95.5999 52.4995C92.8149 52.4995 90.54 52.2587 88.7755 51.778C87.0118 51.2968 85.6884 50.6212 84.8065 49.7511C83.9247 48.8806 83.4136 47.896 83.2745 46.7965C83.1354 45.6974 83.0654 44.2771 83.0654 42.5365H84.4584C84.83 44.781 85.8044 46.5448 87.383 47.8274C88.9615 49.1096 91.2363 49.7511 94.2074 49.7511C96.8533 49.7511 98.7915 49.2927 100.022 48.3767C101.252 47.4603 101.867 46.3158 101.867 44.9418C101.867 43.5674 101.345 42.4106 100.301 41.4719C99.2557 40.5328 97.6891 39.6282 95.5999 38.7581L91.4219 37.0402C88.7755 35.9866 86.7212 34.7385 85.2592 33.2955C83.7967 31.8525 83.0654 30.0091 83.0654 27.7646C83.0654 26.2989 83.3555 25.0163 83.9358 23.9172C84.5164 22.8177 85.3172 21.8903 86.3381 21.1347C87.3599 20.3787 88.5664 19.8062 89.9594 19.4169C91.3523 19.027 92.884 18.833 94.5555 18.833C97.2015 18.833 99.3833 19.0734 101.101 19.5541C102.819 20.0352 104.118 20.7108 105.001 21.5809C105.883 22.4515 106.393 23.4365 106.532 24.5356C106.672 25.6347 106.742 27.0545 106.742 28.7951H105.349C104.978 26.5506 104.014 24.7873 102.459 23.5051C100.904 22.2225 98.7335 21.5809 95.948 21.5809C93.6737 21.5809 91.9441 22.0389 90.7602 22.9553C89.5767 23.8713 88.985 25.0163 88.985 26.3907C88.985 27.5811 89.4722 28.6693 90.447 29.6543C91.4219 30.6389 92.7914 31.4976 94.5555 32.2305L98.7335 33.9479C101.705 35.1392 103.956 36.445 105.488 37.8644C107.02 39.2847 107.786 41.1857 107.786 43.5674Z" fill="#A2B8DF"/>
<path fill-rule="evenodd" clip-rule="evenodd" d="M78.4232 51.812H72.1559V27.7642C72.1559 25.7032 71.8658 24.0426 71.2856 22.7831C70.7049 21.5237 69.3709 20.8939 67.2816 20.8939H65.8887V19.52H72.1559C73.3633 19.52 74.3727 19.6231 75.1855 19.8289C75.9978 20.0352 76.6475 20.4473 77.1347 21.0657C77.6224 21.6836 77.959 22.5314 78.1446 23.6082C78.3306 24.6841 78.4232 26.0699 78.4232 27.7642V51.812Z" fill="#A2B8DF"/>
<path fill-rule="evenodd" clip-rule="evenodd" d="M50.6141 42.1939C51.7745 39.5373 52.7379 37.3619 53.5037 35.6667C54.2699 33.972 54.8966 32.5521 55.3843 31.4071C55.8715 30.2622 56.2776 29.2999 56.6023 28.5216C56.9278 27.7428 57.2525 26.9754 57.5776 26.2198C57.9027 25.4642 58.2508 24.6278 58.622 23.7118C58.9931 22.7954 59.4927 21.605 60.119 20.1388L60.4277 19.4177H63.6539L49.2907 52.5004H48.0372L31.8819 14.5053C31.3247 13.2227 30.803 12.1349 30.3153 11.2413C29.8281 10.3484 29.2825 9.62694 28.6788 9.07718C28.0755 8.52785 27.4258 8.11532 26.7291 7.84044C26.0328 7.56599 25.197 7.38288 24.2222 7.29067V5.91671C24.4077 5.91671 24.7674 5.89399 25.3015 5.8481C25.8357 5.80221 26.2649 5.77905 26.59 5.77905C27.4258 5.77905 28.3771 5.87126 29.4446 6.05437C30.5129 6.23748 31.5918 6.62685 32.6832 7.22206C33.7736 7.81727 34.8419 8.6878 35.8859 9.83321C36.9303 10.9782 37.8706 12.5357 38.7063 14.5053L50.6141 42.1939Z" fill="#A2B8DF"/>
<path fill-rule="evenodd" clip-rule="evenodd" d="M72.155 4.7984C75.8112 4.7984 78.7748 7.76003 78.7748 11.4143C78.7748 15.0686 75.8112 18.0302 72.155 18.0302C68.4992 18.0302 65.5356 15.0686 65.5356 11.4143C65.5356 7.76003 68.4992 4.7984 72.155 4.7984Z" fill="#A2B8DF"/>
<path d="M174.232 65.2576C174.031 65.3852 173.901 65.4844 173.829 65.5552C172.232 67.2158 170.952 69.1317 169.974 71.3027C169.73 71.7996 169.557 72.3105 169.442 72.8069C169.313 73.3038 169.284 73.8431 169.356 74.4108C169.428 75.2481 169.716 75.8442 170.205 76.213C170.694 76.5818 171.355 76.667 172.204 76.4682C172.779 76.2982 173.326 76.0854 173.829 75.8158C174.332 75.5461 174.85 75.2481 175.354 74.9072C176.634 74.0703 177.828 73.1478 178.906 72.1116C179.985 71.0755 181.035 69.9974 182.042 68.862C182.287 68.5924 182.516 68.2943 182.761 67.9963C182.991 67.6983 183.221 67.4286 183.466 67.159C183.739 66.8894 183.94 66.7049 184.084 66.6053C184.487 66.3641 184.875 66.4069 185.249 66.7049C185.652 67.0314 185.724 67.4142 185.451 67.8543C185.379 67.9819 185.307 68.1239 185.206 68.2515C185.105 68.3796 184.99 68.5072 184.89 68.6064C184.142 69.3729 183.408 70.125 182.689 70.8771C181.956 71.6292 181.222 72.3953 180.474 73.1618C179.568 74.0559 178.59 74.8788 177.569 75.6313C176.533 76.3834 175.455 77.0787 174.332 77.7172C173.081 78.3845 171.801 78.6681 170.478 78.5685C168.795 78.4693 167.587 77.6464 166.882 76.1138C166.436 75.1768 166.206 74.2263 166.192 73.2754C166.177 72.3245 166.321 71.3735 166.623 70.4086C167.371 68.3083 168.407 66.4209 169.716 64.7467C170.161 64.1786 170.622 63.6393 171.096 63.1429C171.571 62.646 172.031 62.1635 172.506 61.6955C172.923 61.2978 173.398 60.9714 173.93 60.7017C174.376 60.4605 174.807 60.3473 175.253 60.3613C175.699 60.3757 176.116 60.5457 176.519 60.8437C176.922 61.1418 177.18 61.5106 177.281 61.9223C177.382 62.334 177.396 62.788 177.324 63.2565C177.195 64.051 176.821 64.8031 176.217 65.4988C175.742 66.0381 175.195 66.052 174.591 65.5552C174.52 65.4844 174.462 65.4415 174.419 65.3991C174.361 65.3707 174.304 65.3284 174.232 65.2576ZM185.292 70.0538C185.94 69.4581 186.558 68.8476 187.176 68.2231C187.78 67.613 188.399 67.003 189.046 66.4069C189.492 65.9952 189.924 65.612 190.37 65.2431C190.815 64.8883 191.261 64.5194 191.736 64.1502C191.837 64.0794 191.952 64.0086 192.052 63.9234C192.153 63.8381 192.268 63.7674 192.397 63.6961C192.872 63.4265 193.332 63.3981 193.778 63.5969C194.21 63.7958 194.512 64.1646 194.684 64.7039C194.785 65.1719 194.785 65.6404 194.684 66.1089C194.612 66.5061 194.541 66.9178 194.454 67.3294C194.368 67.7407 194.282 68.1523 194.181 68.5496C194.008 69.2169 194.023 69.9546 194.224 70.7635C194.354 71.2319 194.67 71.4448 195.145 71.4164C196.295 71.3172 197.359 70.8627 198.338 70.0538C198.87 69.5857 199.402 69.1317 199.905 68.6776C200.409 68.2375 200.927 67.7691 201.43 67.301C201.602 67.1446 201.789 66.9886 201.977 66.8325C202.164 66.6765 202.351 66.5489 202.552 66.4493C202.911 66.2509 203.257 66.3217 203.559 66.6481C203.861 66.9886 203.889 67.3434 203.616 67.6983C203.515 67.8687 203.4 68.0103 203.286 68.1239C203.156 68.2515 203.026 68.3796 202.897 68.5072C202.221 69.032 201.56 69.5713 200.898 70.0966C200.236 70.6359 199.575 71.1607 198.898 71.6576C198.525 71.9272 198.151 72.1685 197.762 72.3813C197.374 72.5941 196.971 72.8069 196.554 73.0058C196.281 73.1478 196.008 73.247 195.706 73.2894C195.403 73.3322 195.101 73.3746 194.828 73.4174C194.123 73.4882 193.505 73.3606 192.987 73.0626C192.455 72.7645 192.067 72.2821 191.793 71.6148C191.621 71.2035 191.491 70.7919 191.391 70.3518C191.29 69.9261 191.175 69.5005 191.074 69.0604C191.046 68.8192 191.031 68.5924 191.031 68.3796C191.031 68.1667 191.017 67.9251 190.973 67.6554C190.844 67.7267 190.7 67.7835 190.571 67.8259C190.441 67.8827 190.34 67.9395 190.269 68.0103C189.737 68.5356 189.19 69.0604 188.658 69.5573C188.111 70.0538 187.594 70.593 187.119 71.1607C186.213 72.2253 185.336 73.3322 184.487 74.4676C183.638 75.6029 182.861 76.7523 182.143 77.916C181.941 78.2849 181.725 78.5969 181.495 78.867C181.078 79.2782 180.646 79.3778 180.172 79.165C179.668 78.9662 179.41 78.5969 179.41 78.072C179.41 77.7032 179.467 77.3339 179.568 76.9651C180.143 74.8648 180.762 72.7929 181.409 70.7495C182.07 68.72 182.876 66.7049 183.825 64.7039C184.098 64.1362 184.429 63.5545 184.832 62.944C185.048 62.646 185.364 62.3908 185.81 62.1495C186.17 61.9791 186.529 61.9935 186.889 62.1919C187.249 62.4047 187.45 62.7028 187.522 63.1C187.594 63.3697 187.608 63.6393 187.565 63.9234C187.507 64.207 187.421 64.505 187.32 64.8031C187.047 65.3991 186.788 65.9952 186.544 66.5913C186.285 67.2014 186.026 67.7975 185.753 68.408C185.652 68.6776 185.551 68.9328 185.451 69.2025C185.35 69.4721 185.249 69.7417 185.149 70.0114C185.177 70.0114 185.206 70.0114 185.22 70.0254C185.235 70.0398 185.263 70.0538 185.292 70.0538ZM208.981 72.0124C208.751 72.2821 208.55 72.4949 208.377 72.6793C208.205 72.8637 208.032 73.0482 207.874 73.2186C207.298 73.7439 206.723 74.2831 206.148 74.8364C205.572 75.3901 204.982 75.915 204.364 76.4118C204.091 76.6531 203.803 76.8375 203.501 76.9935C203.199 77.1495 202.897 77.2631 202.595 77.3623C201.948 77.5752 201.373 77.5468 200.84 77.2915C200.308 77.0503 199.92 76.6386 199.647 76.071C199.517 75.8013 199.402 75.5033 199.316 75.1768C199.229 74.8648 199.186 74.5668 199.186 74.2687C199.114 73.2046 199.186 72.2113 199.387 71.3027C199.632 70.0966 200.006 68.9612 200.509 67.8971C201.013 66.8325 201.631 65.8248 202.336 64.8459C203.185 63.7529 204.163 62.8588 205.284 62.1919C206.133 61.6242 207.025 61.3406 207.974 61.3406C209.556 61.4114 210.592 62.1919 211.067 63.6537C211.311 64.491 211.354 65.3139 211.21 66.1512C211.138 66.3925 211.11 66.6053 211.095 66.8041C211.081 67.003 211.038 67.2158 210.966 67.457C211.541 67.8259 211.915 68.2659 212.088 68.7768C212.246 69.3017 212.347 69.8554 212.39 70.4654C212.418 71.1607 212.519 71.8988 212.692 72.6653C212.793 73.1618 213.109 73.3606 213.655 73.2614C213.929 73.1902 214.188 73.1334 214.447 73.0626C214.691 72.9918 214.936 72.8782 215.18 72.7077C215.583 72.4381 215.986 72.154 216.402 71.8564C216.805 71.5584 217.179 71.2319 217.51 70.8627C217.956 70.4514 218.344 70.0254 218.675 69.5573C219.006 69.0888 219.366 68.6492 219.739 68.2091C220.013 67.9111 220.286 67.6131 220.574 67.3294C220.861 67.0454 221.149 66.7757 221.422 66.5061C221.494 66.4353 221.609 66.4069 221.782 66.4069C221.94 66.4069 222.055 66.4353 222.127 66.5061C222.228 66.5773 222.314 66.6765 222.386 66.8041C222.458 66.9317 222.472 67.0598 222.429 67.159C222.4 67.7975 222.127 68.408 221.624 69.0036C220.948 69.8693 220.228 70.7211 219.466 71.5584C218.704 72.3953 217.855 73.1478 216.949 73.8147C216.575 74.1127 216.173 74.3963 215.741 74.666C215.295 74.9356 214.835 75.1484 214.36 75.3189C213.382 75.7161 212.505 75.7589 211.728 75.4609C210.951 75.1629 210.304 74.5528 209.801 73.6158C209.671 73.3746 209.542 73.1478 209.427 72.9066C209.298 72.6793 209.154 72.3813 208.981 72.0124ZM207.816 64.9027C206.867 65.3707 206.105 65.9528 205.529 66.6481C204.954 67.3434 204.436 68.0955 203.961 68.9044C203.487 69.7701 203.084 70.6782 202.724 71.6008C202.365 72.5373 202.235 73.5311 202.336 74.5668C202.609 74.6376 202.84 74.5952 203.026 74.4676C203.213 74.34 203.386 74.2119 203.559 74.1127C205.615 72.4809 207.341 70.6075 208.736 68.5072C208.564 68.2375 208.463 67.9535 208.449 67.6554C208.434 67.3578 208.42 67.0454 208.42 66.7473C208.42 66.4493 208.377 66.1512 208.305 65.8248C208.219 65.5128 208.061 65.2003 207.816 64.9027ZM220.804 73.0058C220.976 72.9774 221.12 72.9634 221.236 72.9774C221.35 72.9918 221.465 72.9774 221.566 72.9066C223.292 72.3389 225.004 71.7284 226.701 71.0755C228.384 70.437 230.009 69.6141 231.562 68.6064C231.936 68.3651 232.281 68.1383 232.612 67.8971C232.928 67.6699 233.274 67.4286 233.648 67.159C233.806 67.0314 233.964 66.9033 234.094 66.7757C234.223 66.6621 234.381 66.5773 234.554 66.5061C235.029 66.3077 235.446 66.4069 235.82 66.8041C236.237 67.2014 236.294 67.6415 236.021 68.1099C235.863 68.2659 235.69 68.4364 235.518 68.6208C235.345 68.8052 235.158 68.9612 234.957 69.0604C233.677 69.7841 232.397 70.4938 231.131 71.1751C229.865 71.8704 228.542 72.4949 227.147 73.0626C226.571 73.3038 225.996 73.5166 225.421 73.7155C224.845 73.9139 224.27 74.1411 223.695 74.4108L222.789 74.8648C222.789 74.9356 222.774 74.9784 222.76 75.0068C222.745 75.0492 222.731 75.0776 222.731 75.1205C223.134 76.0854 223.321 77.0643 223.292 78.072C223.249 79.0798 223.134 80.0587 222.932 81.0241C222.688 82.159 222.443 83.2803 222.199 84.3873C221.954 85.4798 221.667 86.5728 221.365 87.6369C220.588 90.4325 219.61 93.1288 218.445 95.6976C217.28 98.2663 215.913 100.778 214.36 103.247C213.986 103.886 213.569 104.482 213.094 105.05C212.922 105.22 212.749 105.39 212.577 105.56C212.418 105.716 212.232 105.873 212.03 106.001C211.455 106.369 210.894 106.469 210.347 106.284C209.815 106.1 209.441 105.674 209.24 105.007C208.996 104.198 208.938 103.318 209.039 102.353C209.168 101.048 209.341 99.7565 209.556 98.4931C209.772 97.2302 210.031 95.9532 210.304 94.6903C210.909 91.7522 211.671 88.8999 212.577 86.1043C213.497 83.3088 214.461 80.5127 215.482 77.7172C215.554 77.5468 215.611 77.3768 215.684 77.1923C215.755 77.0075 215.813 76.8231 215.885 76.6102C215.784 76.4826 215.669 76.3406 215.54 76.213C215.424 76.0854 215.338 75.9289 215.266 75.7589C214.993 75.2905 214.936 74.8508 215.065 74.4108C215.195 73.9707 215.511 73.6303 215.986 73.3606C216.187 73.2894 216.388 73.233 216.59 73.1618C216.791 73.091 217.007 73.0342 217.251 72.9634C217.323 72.7645 217.395 72.5657 217.481 72.3813C217.568 72.1969 217.64 72.0124 217.712 71.8136C219.092 68.3367 220.574 64.9451 222.156 61.6242C223.723 58.3038 225.421 55.0114 227.248 51.7329C227.693 50.9669 228.168 50.2143 228.7 49.4766C229.218 48.753 229.735 48.0009 230.239 47.2343C230.541 46.8227 230.958 46.4114 231.462 45.9714C231.735 45.7725 232.051 45.5881 232.425 45.4321C233.001 45.2193 233.49 45.2761 233.892 45.5741C234.295 45.8722 234.482 46.3262 234.453 46.9223C234.41 47.4188 234.281 47.9724 234.051 48.5825C233.677 49.8171 233.245 51.0092 232.756 52.173C232.267 53.3507 231.735 54.5005 231.159 55.6354C230.311 57.3101 229.419 58.9279 228.484 60.4889C227.549 62.0643 226.5 63.5969 225.32 65.1011C225.047 65.3991 224.788 65.6972 224.543 65.9812C224.285 66.2649 223.968 66.4921 223.594 66.6481C223.35 66.7473 223.163 66.9317 223.033 67.2014C222.659 68.0671 222.285 68.9472 221.926 69.8269C221.552 70.7211 221.178 71.6008 220.804 72.4665C220.761 72.5373 220.761 72.6085 220.775 72.6793C220.79 72.7645 220.804 72.8782 220.804 73.0058ZM226.384 59.4956C226.586 59.5668 226.744 59.5384 226.873 59.4388C226.989 59.3396 227.075 59.2119 227.147 59.0415C227.751 58.0342 228.355 57.0264 228.944 55.9903C229.534 54.9546 230.052 53.89 230.498 52.7831C230.57 52.6839 230.613 52.5847 230.628 52.4566C230.642 52.3434 230.67 52.2154 230.743 52.0878C230.469 52.2438 230.268 52.4282 230.139 52.6271C230.009 52.8399 229.865 53.0527 229.736 53.2799C229.261 54.1457 228.786 55.0398 228.341 55.9335C227.88 56.842 227.42 57.7501 226.945 58.6443C226.873 58.8147 226.787 58.9707 226.672 59.0983C226.543 59.2259 226.456 59.368 226.384 59.4956V59.6944V59.4956ZM211.771 102.495C211.843 102.538 211.886 102.552 211.915 102.552C211.958 102.552 212.001 102.566 212.073 102.594C212.145 102.495 212.217 102.41 212.318 102.311C212.418 102.211 212.505 102.098 212.577 101.998C212.951 101.431 213.31 100.863 213.641 100.281C213.986 99.6997 214.346 99.1036 214.72 98.4931C216.302 95.726 217.539 92.8736 218.431 89.936C219.337 86.9984 219.956 83.9612 220.301 80.8252C220.401 79.9311 220.329 79.0938 220.099 78.3133C220.056 78.1573 220.013 78.0012 219.941 77.8736C219.869 77.7456 219.812 77.6036 219.739 77.462C219.639 77.3055 219.466 77.2207 219.236 77.2207C219.164 77.1779 219.092 77.1923 219.021 77.2631C218.948 77.3339 218.905 77.3907 218.877 77.462C218.704 77.8308 218.546 78.2141 218.416 78.5969C218.287 78.9801 218.143 79.349 218.013 79.7183C216.791 82.9963 215.684 86.2747 214.691 89.5812C213.699 92.8876 212.879 96.2513 212.232 99.6997C212.16 100.168 212.088 100.636 212.001 101.105C211.915 101.573 211.843 102.027 211.771 102.495ZM238.15 53.9328C237.416 53.9752 236.726 53.9897 236.107 54.0036C235.474 54.0176 234.856 54.0605 234.252 54.1313C233.634 54.2025 233.015 54.2589 232.397 54.2873C231.778 54.3301 231.159 54.3725 230.541 54.4437C230.34 54.4437 230.124 54.4437 229.908 54.4437C229.693 54.4437 229.477 54.4293 229.275 54.3869C228.873 54.3157 228.556 54.1312 228.312 53.8048C228.067 53.4928 227.952 53.1523 227.952 52.7831C227.952 52.4566 228.053 52.1446 228.254 51.861C228.47 51.5769 228.758 51.3641 229.117 51.2365C229.534 51.1369 229.951 51.0805 230.397 51.0805C231.706 51.0092 233.015 50.9524 234.324 50.91C235.633 50.8672 236.942 50.8104 238.251 50.7396C238.524 50.7396 238.826 50.7396 239.128 50.7396C239.43 50.7396 239.746 50.7252 240.077 50.6828C240.249 50.4132 240.408 50.1719 240.566 49.9591C240.724 49.7463 240.868 49.505 240.997 49.2354C241.731 48.0009 242.508 46.7943 243.328 45.6165C244.147 44.4528 245.01 43.3174 245.916 42.2249C246.089 41.9552 246.276 41.728 246.477 41.5152C246.679 41.3168 246.88 41.1039 247.081 40.8767C247.383 40.5787 247.671 40.3514 247.945 40.2238C248.189 40.0962 248.419 40.011 248.664 39.997C248.894 39.9826 249.109 40.0538 249.311 40.2238C249.886 40.5502 250.087 41.0043 249.929 41.572C249.8 42.2105 249.555 42.9062 249.21 43.6723C248.736 44.6376 248.261 45.6025 247.772 46.5675C247.283 47.5468 246.794 48.5117 246.319 49.4766C246.247 49.6471 246.176 49.8171 246.103 49.9731C246.017 50.1435 245.945 50.3708 245.874 50.6404C246.147 50.6404 246.362 50.6544 246.535 50.6828C246.693 50.7252 246.866 50.7252 247.038 50.6828C248.966 50.6828 250.864 50.6688 252.748 50.626C254.618 50.5976 256.517 50.5836 258.444 50.5836C260.587 50.5408 262.702 50.5124 264.801 50.4984C266.887 50.484 269.001 50.4984 271.13 50.5268C271.705 50.5268 272.295 50.5836 272.885 50.6828C273.474 50.782 274.064 50.8672 274.639 50.9384C274.941 51.0092 275.243 51.1084 275.546 51.2365C275.718 51.3073 275.79 51.4633 275.776 51.7045C275.761 51.9602 275.66 52.1162 275.502 52.187C275.229 52.315 274.984 52.3858 274.74 52.3858C273.891 52.4282 273.057 52.4426 272.209 52.4566C271.36 52.471 270.497 52.485 269.619 52.485C268.426 52.5279 267.232 52.5418 266.01 52.5418C264.787 52.5418 263.593 52.5702 262.414 52.6415C259.94 52.7407 257.481 52.8543 255.035 52.9819C252.576 53.1095 250.116 53.2515 247.643 53.3936C247.067 53.422 246.492 53.4504 245.902 53.4784C245.312 53.5212 244.723 53.5636 244.147 53.6348C243.673 54.4721 243.198 55.281 242.752 56.0615C242.292 56.842 241.846 57.6225 241.4 58.3886C240.955 59.1267 240.523 59.8504 240.106 60.5741C239.689 61.2978 239.271 62.0359 238.869 62.802C238.696 63.0716 238.553 63.3273 238.437 63.5685C238.308 63.8242 238.15 64.051 237.948 64.2498C237.474 64.7467 237.129 65.2855 236.913 65.8676C236.697 66.4493 236.496 67.0454 236.323 67.6554C236.093 68.4643 235.877 69.2448 235.676 70.0254C235.46 70.8063 235.273 71.6008 235.115 72.4097C235.014 72.9774 234.971 73.5311 234.985 74.0559C235 74.5952 235.101 75.1484 235.259 75.7161C235.431 76.1846 235.748 76.369 236.222 76.2698C236.769 76.1986 237.258 76.057 237.704 75.8158C238.135 75.5745 238.553 75.3189 238.969 75.0208C240.35 74.0419 241.63 72.9634 242.795 71.7852C243.961 70.6075 245.097 69.3445 246.176 68.0103C246.334 67.7975 246.521 67.5846 246.708 67.3434C246.894 67.1166 247.081 66.9033 247.283 66.7049C247.628 66.3357 247.973 66.2793 248.304 66.5489C248.635 66.847 248.736 67.173 248.606 67.4994C248.505 67.7691 248.361 68.0531 248.203 68.3512C245.6 71.6292 242.709 74.5812 239.531 77.2207C238.984 77.6604 238.409 78.0152 237.804 78.2988C237.186 78.5829 236.553 78.7533 235.877 78.8241C234.655 79.023 233.619 78.5969 232.77 77.5612C232.468 77.1639 232.253 76.7239 232.094 76.2414C231.936 75.7589 231.835 75.2621 231.764 74.7656C231.663 73.8287 231.648 72.9066 231.749 72.0124C231.85 71.1183 232.008 70.1958 232.224 69.2593C232.526 67.9251 232.914 66.6197 233.389 65.3284C233.863 64.037 234.352 62.7456 234.856 61.4542C235.302 60.3897 235.762 59.3256 236.237 58.261C236.711 57.2109 237.172 56.1463 237.646 55.0822C237.718 54.9262 237.776 54.7702 237.847 54.6137C237.92 54.4577 238.02 54.2309 238.15 53.9328ZM250.793 59.3964C251.468 59.3256 251.986 59.524 252.36 59.9924C252.734 60.4605 252.835 61.0142 252.662 61.6527C252.59 61.8087 252.519 61.9791 252.432 62.1495C252.346 62.3195 252.259 62.49 252.159 62.646C251.857 63.1145 251.569 63.5969 251.296 64.0794C251.022 64.5618 250.72 65.0303 250.375 65.4988C249.973 66.0381 249.9 66.6197 250.174 67.2582C250.275 67.5278 250.389 67.7691 250.505 67.9819C250.62 68.1947 250.735 68.4364 250.835 68.7056C251.31 69.6709 251.641 70.6643 251.828 71.7004C252.015 72.7361 252.073 73.8007 252 74.8648C252 75.6029 251.813 76.2982 251.44 76.9651C250.965 77.8592 250.318 78.4553 249.469 78.7249C248.592 79.023 247.729 79.1366 246.88 79.0654C246.032 78.9946 245.241 78.6397 244.493 77.9728C244.162 77.6748 243.817 77.3623 243.472 77.0359C243.141 76.7239 242.839 76.369 242.565 75.9718C242.091 75.1913 241.846 74.51 241.832 73.8999C241.817 73.3038 241.832 72.9066 241.904 72.7077C242.076 72.14 242.335 71.6576 242.695 71.2743C243.054 70.8911 243.443 70.7779 243.888 70.9055C244.047 70.9763 244.162 71.1323 244.205 71.3735C244.263 71.6292 244.277 71.9132 244.263 72.2113C244.248 72.5089 244.219 72.8069 244.176 73.105C244.147 73.403 244.162 73.6442 244.234 73.8147C244.536 74.3824 244.924 74.8364 245.37 75.1629C245.83 75.4893 246.305 75.7729 246.78 76.0142C247.456 76.3122 248.002 76.2982 248.448 75.9434C248.894 75.5885 249.081 75.0637 249.009 74.3679C248.98 74.2971 248.966 74.1695 248.966 73.9851C248.966 73.8007 248.951 73.6871 248.908 73.6158C248.779 73.1194 248.664 72.6653 248.563 72.2821C248.462 71.8988 248.304 71.4732 248.103 71.0047C247.887 70.5367 247.7 70.1106 247.513 69.7277C247.326 69.3445 247.168 68.9472 247.01 68.5356C246.851 68.1239 246.708 67.6554 246.549 67.159C246.391 66.6621 246.262 66.052 246.161 65.3568C246.003 64.1502 246.219 63.1145 246.837 62.2203C247.441 61.3406 248.218 60.5601 249.167 59.8932C249.397 59.7368 249.656 59.6092 249.944 59.5384C250.231 59.4672 250.519 59.4248 250.793 59.3964Z" fill="#A2B8DF"/>
</svg>
