<svg width="178" height="66" viewBox="0 0 178 66" fill="none" xmlns="http://www.w3.org/2000/svg">
<path fill-rule="evenodd" clip-rule="evenodd" d="M14.7933 3.51359C19.1652 2.09666 22.3923 2.68261 24.7785 5.02069C27.3741 7.56379 32.2787 13.7878 34.4236 17.1528L31.5563 22.7686C25.6276 34.3792 27.1791 2.14811 14.7933 3.51359Z" fill="#F6CAC9"/>
<path fill-rule="evenodd" clip-rule="evenodd" d="M14.7576 3.61283C18.1311 2.24995 20.8108 2.95387 22.8288 4.54126C25.3256 6.50516 32.0874 16.928 33.4946 19.6289L31.2033 24.3674C31.2033 24.3674 25.6205 11.9731 23.2361 7.06435C21.6404 3.77887 18.6446 3.18435 14.7576 3.61283Z" fill="#F6CAC9"/>
<path fill-rule="evenodd" clip-rule="evenodd" d="M14.4682 3.51751C16.5312 2.84971 18.2998 2.98015 19.6921 3.51075C22.3148 4.51089 23.7885 7.20782 25.425 10.32L32.2548 21.7737L30.031 25.2787C30.031 25.2787 24.8339 12.7893 22.4496 7.88004C20.8539 4.59456 18.3552 3.08928 14.4682 3.51751Z" fill="#A2B8DF"/>
<path fill-rule="evenodd" clip-rule="evenodd" d="M125.833 11.198C127.293 11.198 128.525 11.3069 129.531 11.5246C130.536 11.7426 131.3 12.1101 131.824 12.6277C132.072 12.873 132.271 13.1453 132.423 13.4446C132.574 13.7445 132.678 14.0984 132.732 14.5069C132.788 14.9153 132.822 15.3989 132.836 15.9571C132.85 16.5157 132.856 17.176 132.856 17.9386H132.03C131.92 16.1953 131.363 14.9086 130.357 14.0781C129.352 13.2474 128.119 12.8319 126.66 12.8319C125.613 12.8319 124.718 13.0499 123.973 13.4854C123.23 13.9214 122.61 14.5136 122.115 15.2627C121.618 16.0116 121.254 16.8969 121.02 17.9184C120.785 18.9393 120.668 20.0356 120.668 21.2067C120.668 22.3778 120.785 23.4741 121.02 24.4955C121.254 25.5167 121.618 26.4018 122.115 27.1509C122.61 27.8998 123.23 28.4922 123.973 28.928C124.718 29.3637 125.613 29.5817 126.66 29.5817C128.119 29.5817 129.304 29.2957 130.212 28.7237C131.122 28.1518 131.934 27.3484 132.65 26.3134L133.477 26.9264C132.54 28.4787 131.445 29.5817 130.192 30.2353C128.939 30.8888 127.485 31.2159 125.833 31.2159C124.29 31.2159 122.948 30.9501 121.804 30.419C120.662 29.8881 119.718 29.173 118.974 28.2745C118.231 27.3757 117.673 26.3202 117.301 25.1083C116.929 23.8963 116.743 22.5958 116.743 21.2067C116.743 19.8178 116.929 18.5173 117.301 17.3054C117.673 16.0932 118.231 15.038 118.974 14.1392C119.718 13.2404 120.662 12.5255 121.804 11.9944C122.948 11.4636 124.29 11.198 125.833 11.198Z" fill="#A2B8DF"/>
<path fill-rule="evenodd" clip-rule="evenodd" d="M114.868 21.8651H102.348C102.348 22.9819 102.472 24.0166 102.72 24.97C102.968 25.9231 103.333 26.747 103.815 27.4416C104.297 28.1359 104.882 28.6741 105.571 29.0553C106.26 29.4364 107.044 29.6269 107.926 29.6269C109.276 29.6269 110.398 29.3411 111.293 28.7692C112.188 28.1972 112.994 27.3938 113.71 26.3588L114.537 26.9716C113.6 28.5241 112.519 29.6269 111.293 30.2807C110.068 30.9342 108.67 31.2611 107.1 31.2611C105.64 31.2611 104.373 30.9955 103.298 30.4646C102.224 29.9335 101.322 29.2184 100.592 28.3199C99.8624 27.4211 99.3179 26.3656 98.96 25.1537C98.602 23.9418 98.4233 22.6412 98.4233 21.2524C98.4233 19.8632 98.6091 18.5627 98.981 17.3508C99.3531 16.1389 99.8968 15.0834 100.613 14.1849C101.329 13.2861 102.197 12.571 103.215 12.0398C104.235 11.509 105.392 11.2432 106.686 11.2432C109.496 11.2432 111.576 12.0196 112.925 13.5719C114.275 15.1242 114.95 17.3441 114.95 20.2309L114.868 21.8651ZM111.024 20.1857C111.024 17.8162 110.666 15.9983 109.95 14.7318C109.234 13.4654 108.146 12.8321 106.686 12.8321C106.053 12.8321 105.474 13.0161 104.951 13.3838C104.427 13.7512 103.974 14.262 103.588 14.9155C103.202 15.5693 102.899 16.3457 102.679 17.2443C102.458 18.1431 102.348 19.1237 102.348 20.1857H111.024Z" fill="#A2B8DF"/>
<path fill-rule="evenodd" clip-rule="evenodd" d="M88.7569 13.2406H85.8648V11.6067H88.7569V7.92989L90.8233 5.47852H92.4757V11.6067H97.4334V13.2406H92.4757V25.9049C92.4757 28.356 93.4399 29.5817 95.3678 29.5817C96.0839 29.5817 96.676 29.5001 97.144 29.3367C97.6126 29.1732 98.0536 28.9828 98.467 28.7647L98.8795 29.5817C98.6593 29.7454 98.4044 29.9224 98.1151 30.1128C97.8263 30.3035 97.4746 30.4805 97.0613 30.6439C96.6487 30.8074 96.1664 30.9435 95.6161 31.0527C95.0645 31.1613 94.4312 31.2159 93.7153 31.2159C92.2552 31.2159 91.0643 30.7936 90.1413 29.9496C89.2186 29.1051 88.7569 27.7571 88.7569 25.9049V13.2406Z" fill="#A2B8DF"/>
<path fill-rule="evenodd" clip-rule="evenodd" d="M83.661 30.8071H81.5952L80.149 29.173H79.9425C79.4193 29.6903 78.7031 30.1604 77.7941 30.5824C76.8851 31.0044 75.8108 31.2156 74.5715 31.2156C73.6898 31.2156 72.8291 31.1138 71.989 30.9093C71.1488 30.705 70.3983 30.3238 69.7371 29.7654C69.0761 29.207 68.5458 28.4511 68.1466 27.498C67.7472 26.5449 67.5472 25.3327 67.5472 23.8623V16.5084C67.5472 15.283 67.3751 14.2956 67.0308 13.5467C66.6868 12.7978 65.8947 12.4234 64.6551 12.4234H64.242V11.6064H67.5472C68.2636 11.6064 68.8625 11.6678 69.3447 11.7902C69.8267 11.9128 70.2125 12.1578 70.5015 12.5255C70.7909 12.8929 70.9903 13.397 71.1007 14.0373C71.2108 14.677 71.2658 15.501 71.2658 16.5084V23.8623C71.2658 24.8972 71.3969 25.762 71.6584 26.4563C71.9201 27.1506 72.2644 27.716 72.6912 28.1515C73.1185 28.5875 73.6004 28.9007 74.1373 29.0914C74.6747 29.2819 75.2324 29.3772 75.8108 29.3772C76.637 29.3772 77.4015 29.1595 78.104 28.7237C78.8064 28.2879 79.4193 27.7841 79.9425 27.2119V11.6064H83.661V30.8071Z" fill="#A2B8DF"/>
<path fill-rule="evenodd" clip-rule="evenodd" d="M63.9532 25.9049C63.9532 26.7762 63.7671 27.5391 63.3955 28.1926C63.0234 28.8464 62.521 29.3978 61.8871 29.8473C61.2538 30.2966 60.4893 30.637 59.5939 30.8685C58.6991 31.1 57.7418 31.2159 56.7226 31.2159C55.0702 31.2159 53.7205 31.0727 52.6735 30.7869C51.627 30.5008 50.8418 30.0991 50.3186 29.5817C49.7953 29.0641 49.4921 28.4787 49.4096 27.8249C49.327 27.1714 49.2855 26.3269 49.2855 25.292H50.112C50.3325 26.6265 50.9106 27.6753 51.8473 28.4379C52.7839 29.2003 54.1336 29.5817 55.8964 29.5817C57.4663 29.5817 58.6163 29.3092 59.3461 28.7645C60.0762 28.2196 60.4412 27.5391 60.4412 26.7222C60.4412 25.9049 60.1314 25.2171 59.5117 24.659C58.8918 24.1006 57.9622 23.5627 56.7226 23.0454L54.2437 22.0239C52.6735 21.3974 51.4546 20.6553 50.5871 19.7973C49.7194 18.9393 49.2855 17.8433 49.2855 16.5087C49.2855 15.6372 49.4576 14.8745 49.8019 14.221C50.1464 13.5673 50.6216 13.0159 51.2273 12.5666C51.8336 12.1171 52.5494 11.7767 53.3759 11.5452C54.2024 11.3134 55.1112 11.198 56.103 11.198C57.6729 11.198 58.9674 11.3409 59.9868 11.6267C61.0059 11.9128 61.777 12.3145 62.3005 12.8319C62.8237 13.3495 63.1267 13.9352 63.2092 14.5887C63.292 15.2422 63.3335 16.0865 63.3335 17.1214H62.507C62.2868 15.7869 61.715 14.7384 60.7926 13.976C59.8696 13.2134 58.5819 12.8319 56.9292 12.8319C55.5797 12.8319 54.5535 13.1042 53.8511 13.6491C53.1489 14.1937 52.7978 14.8745 52.7978 15.6918C52.7978 16.3996 53.0869 17.0466 53.6653 17.6323C54.2437 18.2177 55.0563 18.7283 56.103 19.1641L58.5819 20.1852C60.3447 20.8936 61.6805 21.67 62.5898 22.514C63.4988 23.3585 63.9532 24.4888 63.9532 25.9049Z" fill="#A2B8DF"/>
<path fill-rule="evenodd" clip-rule="evenodd" d="M46.5309 30.8071H42.8123V16.5084C42.8123 15.283 42.6402 14.2956 42.2959 13.5467C41.9514 12.7978 41.1599 12.4234 39.9203 12.4234H39.0938V11.6064H42.8123C43.5287 11.6064 44.1276 11.6678 44.6099 11.7902C45.0918 11.9128 45.4773 12.1578 45.7664 12.5255C46.0558 12.8929 46.2555 13.397 46.3656 14.0373C46.476 14.677 46.5309 15.501 46.5309 16.5084V30.8071Z" fill="#A2B8DF"/>
<path fill-rule="evenodd" clip-rule="evenodd" d="M30.031 25.0882C30.7195 23.5086 31.2911 22.2151 31.7455 21.2072C32.2001 20.1995 32.572 19.3553 32.8613 18.6745C33.1504 17.9937 33.3914 17.4215 33.584 16.9587C33.7771 16.4957 33.9698 16.0394 34.1627 15.5901C34.3556 15.1409 34.5621 14.6435 34.7823 14.0989C35.0026 13.554 35.299 12.8462 35.6706 11.9744L35.8538 11.5456H37.768L29.2458 31.2164H28.502L18.9166 8.62473C18.586 7.86209 18.2764 7.21534 17.9871 6.68395C17.698 6.15309 17.3742 5.72409 17.016 5.3972C16.6581 5.07058 16.2726 4.82529 15.8592 4.66184C15.4461 4.49866 14.9502 4.38979 14.3718 4.33496V3.51801C14.4819 3.51801 14.6953 3.5045 15.0122 3.47721C15.3291 3.44993 15.5838 3.43616 15.7767 3.43616C16.2726 3.43616 16.8371 3.49098 17.4704 3.59986C18.1043 3.70873 18.7444 3.94026 19.392 4.29416C20.039 4.64807 20.6728 5.16568 21.2922 5.84673C21.9119 6.52753 22.4698 7.45361 22.9657 8.62473L30.031 25.0882Z" fill="#A2B8DF"/>
<path fill-rule="evenodd" clip-rule="evenodd" d="M42.8121 2.85309C44.9814 2.85309 46.7398 4.61406 46.7398 6.78688C46.7398 8.9597 44.9814 10.7207 42.8121 10.7207C40.6429 10.7207 38.8846 8.9597 38.8846 6.78688C38.8846 4.61406 40.6429 2.85309 42.8121 2.85309Z" fill="#A2B8DF"/>
<path d="M103.378 38.8018C103.258 38.8776 103.182 38.9366 103.139 38.9787C102.191 39.9661 101.432 41.1053 100.852 42.3962C100.706 42.6916 100.604 42.9954 100.536 43.2906C100.459 43.586 100.442 43.9067 100.485 44.2442C100.527 44.7421 100.698 45.0965 100.988 45.3158C101.278 45.5351 101.671 45.5858 102.174 45.4676C102.516 45.3665 102.84 45.2399 103.139 45.0796C103.437 44.9193 103.745 44.7421 104.043 44.5394C104.803 44.0418 105.511 43.4933 106.151 42.8772C106.791 42.2611 107.414 41.62 108.011 40.945C108.157 40.7846 108.293 40.6074 108.438 40.4302C108.575 40.253 108.711 40.0927 108.856 39.9323C109.018 39.772 109.138 39.6624 109.223 39.6031C109.462 39.4597 109.693 39.4852 109.915 39.6624C110.153 39.8565 110.196 40.0841 110.034 40.3458C109.991 40.4216 109.949 40.5061 109.889 40.582C109.829 40.6581 109.761 40.734 109.701 40.7929C109.258 41.2487 108.822 41.6959 108.396 42.1431C107.96 42.5903 107.525 43.0458 107.081 43.5016C106.544 44.0332 105.963 44.5225 105.357 44.9699C104.743 45.4171 104.103 45.8306 103.437 46.2102C102.695 46.607 101.935 46.7756 101.15 46.7164C100.152 46.6574 99.4351 46.1681 99.0167 45.2568C98.7524 44.6997 98.6157 44.1346 98.6073 43.5691C98.5986 43.0037 98.684 42.4383 98.8633 41.8645C99.3071 40.6157 99.9215 39.4935 100.698 38.498C100.962 38.1602 101.236 37.8396 101.517 37.5444C101.799 37.2489 102.072 36.9621 102.353 36.6838C102.601 36.4473 102.883 36.2532 103.198 36.0929C103.463 35.9494 103.719 35.8821 103.984 35.8905C104.248 35.899 104.495 36.0001 104.735 36.1773C104.974 36.3545 105.127 36.5739 105.187 36.8186C105.247 37.0634 105.255 37.3334 105.212 37.6119C105.136 38.0843 104.914 38.5315 104.555 38.9452C104.274 39.2658 103.949 39.2742 103.591 38.9787C103.548 38.9366 103.514 38.9112 103.489 38.8859C103.455 38.8691 103.42 38.8439 103.378 38.8018ZM109.94 41.6536C110.324 41.2994 110.691 40.9364 111.058 40.5651C111.416 40.2023 111.784 39.8396 112.168 39.4851C112.432 39.2404 112.688 39.0125 112.953 38.7932C113.217 38.5822 113.482 38.3629 113.764 38.1433C113.823 38.1012 113.891 38.0591 113.951 38.0085C114.011 37.9578 114.079 37.9157 114.156 37.8733C114.438 37.713 114.711 37.6961 114.975 37.8144C115.231 37.9326 115.41 38.1519 115.513 38.4725C115.573 38.7508 115.573 39.0294 115.513 39.3079C115.47 39.5441 115.428 39.7889 115.376 40.0337C115.325 40.2782 115.274 40.523 115.214 40.7592C115.112 41.156 115.12 41.5946 115.24 42.0755C115.317 42.3541 115.504 42.4806 115.786 42.4637C116.468 42.4048 117.1 42.1345 117.68 41.6536C117.996 41.3753 118.312 41.1053 118.611 40.8353C118.909 40.5736 119.217 40.2951 119.515 40.0168C119.618 39.9238 119.728 39.831 119.84 39.7382C119.951 39.6455 120.061 39.5696 120.181 39.5104C120.394 39.3924 120.599 39.4345 120.778 39.6286C120.958 39.831 120.974 40.042 120.812 40.253C120.753 40.3543 120.684 40.4385 120.616 40.5061C120.539 40.582 120.462 40.6581 120.386 40.734C119.985 41.046 119.592 41.3667 119.199 41.679C118.807 41.9997 118.414 42.3117 118.013 42.6072C117.791 42.7675 117.57 42.9109 117.339 43.0375C117.109 43.164 116.87 43.2906 116.622 43.4088C116.46 43.4933 116.298 43.5522 116.119 43.5774C115.939 43.6029 115.76 43.6281 115.598 43.6536C115.18 43.6957 114.813 43.6198 114.506 43.4426C114.19 43.2654 113.96 42.9785 113.797 42.5817C113.695 42.3372 113.618 42.0924 113.559 41.8308C113.499 41.5777 113.431 41.3246 113.371 41.0629C113.354 40.9195 113.345 40.7846 113.345 40.6581C113.345 40.5315 113.337 40.3879 113.311 40.2275C113.234 40.2699 113.149 40.3037 113.072 40.3289C112.995 40.3626 112.935 40.3964 112.893 40.4385C112.577 40.7509 112.253 41.0629 111.937 41.3584C111.613 41.6536 111.306 41.9742 111.024 42.3117C110.486 42.9447 109.966 43.6029 109.462 44.278C108.959 44.9531 108.498 45.6365 108.071 46.3284C107.952 46.5477 107.824 46.7333 107.687 46.8938C107.44 47.1384 107.184 47.1976 106.902 47.0711C106.603 46.9528 106.45 46.7333 106.45 46.4212C106.45 46.2019 106.484 45.9823 106.544 45.763C106.885 44.5142 107.252 43.2823 107.636 42.0672C108.029 40.8605 108.507 39.6624 109.07 38.4725C109.232 38.135 109.428 37.7891 109.667 37.4261C109.795 37.2489 109.983 37.0972 110.247 36.9537C110.461 36.8524 110.674 36.861 110.887 36.9789C111.101 37.1055 111.22 37.2827 111.263 37.5189C111.306 37.6792 111.314 37.8396 111.288 38.0085C111.254 38.1771 111.203 38.3543 111.143 38.5315C110.981 38.8859 110.828 39.2404 110.683 39.5948C110.529 39.9575 110.376 40.312 110.213 40.675C110.153 40.8353 110.094 40.9871 110.034 41.1474C109.974 41.3077 109.915 41.468 109.855 41.6283C109.872 41.6283 109.889 41.6283 109.898 41.6367C109.906 41.6452 109.923 41.6536 109.94 41.6536ZM123.995 42.8182C123.859 42.9785 123.74 43.105 123.637 43.2147C123.535 43.3244 123.432 43.434 123.338 43.5353C122.997 43.8477 122.656 44.1683 122.314 44.4973C121.973 44.8265 121.623 45.1386 121.256 45.434C121.094 45.5775 120.923 45.6871 120.744 45.7799C120.565 45.8726 120.386 45.9402 120.206 45.9992C119.823 46.1257 119.481 46.1088 119.165 45.9571C118.85 45.8137 118.619 45.5689 118.457 45.2314C118.38 45.071 118.312 44.8938 118.261 44.6997C118.209 44.5142 118.184 44.337 118.184 44.1598C118.141 43.527 118.184 42.9364 118.303 42.3962C118.448 41.679 118.67 41.0039 118.969 40.3712C119.268 39.7382 119.635 39.139 120.053 38.557C120.556 37.9071 121.137 37.3755 121.802 36.9789C122.306 36.6414 122.835 36.4728 123.398 36.4728C124.337 36.5149 124.951 36.9789 125.233 37.8481C125.378 38.346 125.404 38.8353 125.318 39.3331C125.276 39.4766 125.258 39.6031 125.25 39.7213C125.241 39.8396 125.216 39.9661 125.173 40.1096C125.514 40.3289 125.736 40.5905 125.839 40.8943C125.933 41.2064 125.992 41.5356 126.018 41.8983C126.035 42.3117 126.095 42.7506 126.197 43.2064C126.257 43.5016 126.445 43.6198 126.769 43.5608C126.931 43.5185 127.085 43.4847 127.238 43.4426C127.383 43.4005 127.528 43.3329 127.674 43.2316C127.912 43.0713 128.152 42.9024 128.399 42.7254C128.638 42.5482 128.86 42.3541 129.056 42.1345C129.321 41.89 129.551 41.6367 129.747 41.3584C129.944 41.0798 130.157 40.8184 130.379 40.5568C130.541 40.3795 130.703 40.2023 130.874 40.0337C131.044 39.8648 131.215 39.7045 131.377 39.5441C131.42 39.502 131.488 39.4851 131.591 39.4851C131.685 39.4851 131.753 39.502 131.795 39.5441C131.855 39.5865 131.906 39.6455 131.949 39.7213C131.992 39.7972 132 39.8734 131.975 39.9323C131.958 40.312 131.795 40.675 131.497 41.0291C131.096 41.5439 130.669 42.0503 130.217 42.5482C129.764 43.0458 129.261 43.4933 128.723 43.8898C128.501 44.067 128.262 44.2356 128.007 44.396C127.742 44.5563 127.469 44.6828 127.187 44.7842C126.607 45.0204 126.086 45.0458 125.625 44.8686C125.165 44.6914 124.781 44.3287 124.482 43.7715C124.405 43.6281 124.328 43.4933 124.26 43.3498C124.183 43.2147 124.098 43.0375 123.995 42.8182ZM123.304 38.5908C122.741 38.8691 122.289 39.2152 121.947 39.6286C121.606 40.042 121.299 40.4892 121.017 40.9702C120.735 41.4849 120.497 42.0249 120.283 42.5734C120.07 43.1303 119.993 43.7211 120.053 44.337C120.215 44.3791 120.352 44.3539 120.462 44.278C120.573 44.2021 120.676 44.126 120.778 44.067C121.998 43.0967 123.023 41.9828 123.85 40.734C123.748 40.5736 123.688 40.4047 123.68 40.2275C123.671 40.0506 123.663 39.8648 123.663 39.6876C123.663 39.5104 123.637 39.3331 123.594 39.139C123.543 38.9535 123.449 38.7677 123.304 38.5908ZM131.01 43.4088C131.113 43.3919 131.198 43.3836 131.266 43.3919C131.335 43.4005 131.403 43.3919 131.463 43.3498C132.487 43.0123 133.502 42.6493 134.509 42.2611C135.508 41.8814 136.472 41.3922 137.394 40.7929C137.616 40.6495 137.82 40.5147 138.017 40.3712C138.204 40.2361 138.409 40.0927 138.631 39.9323C138.725 39.8565 138.819 39.7803 138.896 39.7045C138.972 39.6369 139.066 39.5865 139.169 39.5441C139.45 39.4262 139.698 39.4852 139.92 39.7213C140.167 39.9575 140.201 40.2192 140.039 40.4978C139.945 40.5905 139.843 40.6919 139.741 40.8015C139.638 40.9112 139.527 41.0039 139.408 41.0629C138.648 41.4932 137.889 41.9152 137.138 42.3203C136.387 42.7337 135.602 43.105 134.774 43.4426C134.432 43.586 134.091 43.7126 133.75 43.8308C133.408 43.9488 133.067 44.0839 132.726 44.2442L132.188 44.5142C132.188 44.5563 132.179 44.5817 132.171 44.5986C132.162 44.6238 132.154 44.6407 132.154 44.6662C132.393 45.2399 132.504 45.822 132.487 46.4212C132.461 47.0204 132.393 47.6024 132.273 48.1764C132.128 48.8512 131.983 49.518 131.838 50.1762C131.693 50.8258 131.522 51.4757 131.343 52.1084C130.882 53.7706 130.302 55.3739 129.611 56.9012C128.919 58.4286 128.109 59.9222 127.187 61.3903C126.965 61.7699 126.718 62.1244 126.436 62.4619C126.334 62.5632 126.231 62.6643 126.129 62.7657C126.035 62.8584 125.924 62.9512 125.805 63.0273C125.463 63.2466 125.13 63.3059 124.806 63.196C124.491 63.0863 124.269 62.8332 124.149 62.4367C124.004 61.9557 123.97 61.4324 124.03 60.8587C124.106 60.0825 124.209 59.3147 124.337 58.5635C124.465 57.8125 124.619 57.0532 124.781 56.3023C125.139 54.5554 125.591 52.8594 126.129 51.1971C126.675 49.5349 127.247 47.8724 127.853 46.2102C127.896 46.1088 127.93 46.0078 127.972 45.8981C128.015 45.7882 128.049 45.6785 128.092 45.552C128.032 45.4761 127.964 45.3917 127.887 45.3158C127.819 45.2399 127.767 45.1469 127.725 45.0458C127.563 44.7673 127.528 44.5059 127.605 44.2442C127.682 43.9825 127.87 43.7801 128.152 43.6198C128.271 43.5774 128.39 43.5439 128.51 43.5016C128.629 43.4595 128.757 43.4257 128.902 43.3836C128.945 43.2654 128.988 43.1471 129.039 43.0375C129.09 42.9278 129.133 42.8182 129.176 42.6999C129.995 40.6326 130.874 38.616 131.813 36.6414C132.743 34.6671 133.75 32.7094 134.834 30.7601C135.098 30.3046 135.38 29.8571 135.695 29.4185C136.003 28.9882 136.31 28.541 136.609 28.0852C136.788 27.8405 137.035 27.596 137.334 27.3343C137.496 27.2161 137.684 27.1064 137.906 27.0136C138.247 26.8871 138.537 26.9209 138.776 27.0981C139.015 27.2753 139.126 27.5453 139.109 27.8997C139.083 28.1949 139.007 28.5241 138.87 28.8869C138.648 29.6209 138.392 30.3298 138.102 31.0218C137.812 31.722 137.496 32.4057 137.155 33.0805C136.651 34.0762 136.122 35.0382 135.567 35.9663C135.013 36.9031 134.39 37.8143 133.69 38.7087C133.528 38.8859 133.374 39.0632 133.229 39.2321C133.076 39.4007 132.888 39.5358 132.666 39.6286C132.521 39.6876 132.41 39.7972 132.333 39.9575C132.111 40.4723 131.889 40.9956 131.676 41.5187C131.454 42.0503 131.232 42.5734 131.01 43.0882C130.985 43.1302 130.985 43.1726 130.993 43.2147C131.002 43.2654 131.01 43.3329 131.01 43.4088ZM134.321 35.3757C134.441 35.4181 134.535 35.4012 134.612 35.3419C134.68 35.2829 134.731 35.2071 134.774 35.1057C135.132 34.5068 135.491 33.9076 135.84 33.2915C136.19 32.6757 136.498 32.0427 136.762 31.3845C136.805 31.3255 136.83 31.2665 136.839 31.1904C136.847 31.1231 136.865 31.047 136.907 30.9711C136.745 31.0638 136.626 31.1735 136.549 31.2917C136.472 31.4183 136.387 31.5448 136.31 31.6799C136.028 32.1947 135.747 32.7263 135.482 33.2577C135.209 33.7979 134.936 34.3379 134.654 34.8695C134.612 34.9709 134.56 35.0636 134.492 35.1395C134.415 35.2154 134.364 35.2998 134.321 35.3757V35.4939V35.3757ZM125.651 60.9431C125.694 60.9683 125.719 60.9769 125.736 60.9769C125.762 60.9769 125.787 60.9852 125.83 61.0021C125.873 60.9431 125.916 60.8924 125.975 60.8335C126.035 60.7742 126.086 60.7069 126.129 60.6477C126.351 60.3101 126.564 59.9726 126.76 59.6267C126.965 59.2809 127.179 58.9265 127.401 58.5635C128.339 56.9181 129.073 55.2221 129.602 53.4754C130.14 51.7288 130.507 49.9228 130.712 48.0582C130.771 47.5266 130.729 47.0287 130.592 46.5646C130.567 46.4719 130.541 46.3791 130.498 46.3032C130.456 46.2271 130.422 46.1426 130.379 46.0584C130.319 45.9654 130.217 45.915 130.08 45.915C130.037 45.8895 129.995 45.8981 129.952 45.9402C129.909 45.9823 129.884 46.0161 129.867 46.0584C129.764 46.2777 129.671 46.5056 129.594 46.7333C129.517 46.9611 129.432 47.1804 129.355 47.4C128.629 49.3491 127.972 51.2985 127.383 53.2645C126.795 55.2304 126.308 57.2305 125.924 59.2809C125.882 59.5592 125.839 59.8377 125.787 60.1163C125.736 60.3946 125.694 60.6646 125.651 60.9431ZM141.302 32.0681C140.867 32.0934 140.458 32.1019 140.09 32.1102C139.715 32.1186 139.348 32.144 138.99 32.1861C138.623 32.2285 138.256 32.262 137.889 32.2789C137.522 32.3043 137.155 32.3295 136.788 32.3719C136.668 32.3719 136.54 32.3719 136.412 32.3719C136.284 32.3719 136.156 32.3633 136.037 32.3381C135.798 32.2958 135.61 32.1861 135.465 31.992C135.32 31.8065 135.252 31.6041 135.252 31.3845C135.252 31.1904 135.311 31.0049 135.431 30.8362C135.559 30.6673 135.73 30.5408 135.943 30.4649C136.191 30.4057 136.438 30.3721 136.702 30.3721C137.479 30.3298 138.256 30.296 139.032 30.2708C139.809 30.2453 140.585 30.2116 141.362 30.1695C141.524 30.1695 141.703 30.1695 141.883 30.1695C142.062 30.1695 142.25 30.1609 142.446 30.1357C142.548 29.9754 142.642 29.8319 142.736 29.7054C142.83 29.5788 142.915 29.4354 142.992 29.2751C143.427 28.541 143.888 27.8236 144.374 27.1233C144.861 26.4313 145.373 25.7563 145.911 25.1066C146.013 24.9463 146.124 24.8112 146.243 24.6847C146.363 24.5667 146.482 24.4401 146.602 24.305C146.781 24.1278 146.952 23.9927 147.114 23.9168C147.259 23.8409 147.396 23.7903 147.541 23.782C147.677 23.7734 147.805 23.8157 147.925 23.9168C148.266 24.1109 148.385 24.3809 148.291 24.7184C148.215 25.0981 148.07 25.5117 147.865 25.9673C147.583 26.5413 147.301 27.115 147.011 27.6887C146.721 28.271 146.431 28.8448 146.149 29.4185C146.107 29.5199 146.064 29.6209 146.021 29.7137C145.97 29.815 145.928 29.9502 145.885 30.1105C146.047 30.1105 146.175 30.1188 146.277 30.1357C146.371 30.1609 146.474 30.1609 146.576 30.1357C147.72 30.1357 148.846 30.1274 149.964 30.1019C151.073 30.085 152.2 30.0767 153.343 30.0767C154.615 30.0512 155.87 30.0343 157.116 30.026C158.353 30.0175 159.607 30.026 160.87 30.0429C161.212 30.0429 161.562 30.0767 161.912 30.1357C162.261 30.1947 162.611 30.2453 162.953 30.2877C163.132 30.3298 163.311 30.3888 163.491 30.4649C163.593 30.507 163.636 30.5998 163.627 30.7432C163.618 30.8952 163.559 30.988 163.465 31.0301C163.303 31.1062 163.158 31.1483 163.012 31.1483C162.509 31.1735 162.014 31.1821 161.511 31.1904C161.007 31.199 160.495 31.2073 159.974 31.2073C159.266 31.2327 158.558 31.2411 157.833 31.2411C157.107 31.2411 156.399 31.2579 155.699 31.3003C154.231 31.3593 152.772 31.4268 151.321 31.5027C149.862 31.5786 148.402 31.663 146.935 31.7475C146.593 31.7644 146.252 31.7813 145.902 31.7979C145.552 31.8234 145.202 31.8486 144.861 31.8909C144.579 32.3888 144.298 32.8698 144.033 33.3338C143.76 33.7979 143.495 34.262 143.231 34.7175C142.966 35.1564 142.71 35.5867 142.463 36.017C142.215 36.4473 141.968 36.8862 141.729 37.3417C141.626 37.502 141.541 37.654 141.473 37.7975C141.396 37.9495 141.302 38.0843 141.183 38.2026C140.901 38.498 140.696 38.8184 140.568 39.1645C140.44 39.5104 140.321 39.8648 140.218 40.2275C140.082 40.7085 139.954 41.1726 139.834 41.6367C139.706 42.101 139.596 42.5734 139.502 43.0544C139.442 43.3919 139.416 43.7211 139.425 44.0332C139.433 44.3539 139.493 44.6828 139.587 45.0204C139.689 45.2989 139.877 45.4086 140.159 45.3496C140.483 45.3072 140.773 45.223 141.038 45.0796C141.294 44.9362 141.541 44.7842 141.789 44.6069C142.608 44.0249 143.367 43.3836 144.059 42.6831C144.75 41.9828 145.424 41.2318 146.064 40.4385C146.158 40.312 146.269 40.1854 146.38 40.042C146.491 39.9071 146.602 39.7803 146.721 39.6624C146.926 39.4428 147.131 39.4093 147.327 39.5696C147.524 39.7468 147.583 39.9407 147.506 40.1348C147.447 40.2951 147.361 40.464 147.267 40.6412C145.723 42.5903 144.008 44.3455 142.122 45.915C141.797 46.1764 141.456 46.3874 141.097 46.556C140.731 46.7249 140.355 46.8263 139.954 46.8684C139.228 46.9866 138.614 46.7333 138.11 46.1174C137.931 45.8812 137.803 45.6196 137.709 45.3327C137.616 45.0458 137.556 44.7504 137.513 44.4552C137.453 43.8981 137.445 43.3498 137.505 42.8182C137.564 42.2865 137.658 41.738 137.786 41.1812C137.965 40.3878 138.196 39.6117 138.478 38.8439C138.759 38.076 139.049 37.3082 139.348 36.5403C139.613 35.9073 139.886 35.2746 140.167 34.6416C140.449 34.0172 140.722 33.3843 141.004 32.7515C141.046 32.6588 141.08 32.566 141.123 32.473C141.166 32.3802 141.225 32.2454 141.302 32.0681ZM148.804 35.3167C149.205 35.2746 149.512 35.3926 149.734 35.6712C149.955 35.9494 150.015 36.2787 149.913 36.6583C149.87 36.7511 149.828 36.8524 149.777 36.9537C149.725 37.0548 149.674 37.1562 149.614 37.2489C149.435 37.5275 149.264 37.8144 149.102 38.1012C148.94 38.3881 148.761 38.6666 148.556 38.9452C148.317 39.2658 148.274 39.6117 148.437 39.9913C148.496 40.1517 148.564 40.2951 148.633 40.4216C148.701 40.5482 148.769 40.6919 148.829 40.8519C149.111 41.4259 149.307 42.0166 149.418 42.6326C149.529 43.2485 149.563 43.8815 149.52 44.5142C149.52 44.9531 149.409 45.3665 149.188 45.763C148.906 46.2946 148.522 46.6491 148.018 46.8094C147.498 46.9866 146.986 47.0542 146.482 47.0118C145.979 46.9697 145.509 46.7587 145.066 46.3622C144.869 46.185 144.665 45.9992 144.46 45.8051C144.264 45.6196 144.084 45.4086 143.922 45.1724C143.64 44.7083 143.495 44.3032 143.487 43.9404C143.478 43.586 143.487 43.3498 143.53 43.2316C143.632 42.8941 143.786 42.6072 143.999 42.3793C144.212 42.1514 144.443 42.0841 144.707 42.16C144.801 42.2021 144.869 42.2948 144.895 42.4383C144.929 42.5903 144.938 42.7592 144.929 42.9364C144.921 43.1134 144.903 43.2906 144.878 43.4678C144.861 43.645 144.869 43.7884 144.912 43.8898C145.091 44.2273 145.322 44.4973 145.586 44.6914C145.859 44.8855 146.141 45.0541 146.423 45.1976C146.824 45.3748 147.148 45.3665 147.412 45.1555C147.677 44.9445 147.788 44.6324 147.745 44.2187C147.728 44.1766 147.72 44.1008 147.72 43.9911C147.72 43.8815 147.711 43.8139 147.686 43.7715C147.609 43.4764 147.541 43.2064 147.481 42.9785C147.421 42.7506 147.327 42.4975 147.208 42.219C147.08 41.9407 146.969 41.6873 146.858 41.4597C146.747 41.2318 146.653 40.9956 146.559 40.7509C146.465 40.5061 146.38 40.2275 146.286 39.9323C146.192 39.6369 146.115 39.2742 146.056 38.8607C145.962 38.1433 146.09 37.5275 146.457 36.9958C146.815 36.4728 147.276 36.0087 147.839 35.6122C147.976 35.5191 148.129 35.4433 148.3 35.4012C148.471 35.3588 148.641 35.3336 148.804 35.3167Z" fill="#A2B8DF"/>
</svg>
